<?xml version="1.0" encoding="UTF-8"?>
<svg version="1.1" xmlns="http://www.w3.org/2000/svg" width="3840" height="2160">
<path d="M0 0 C1.44453969 -0.00702288 2.88907907 -0.01410969 4.33361816 -0.02125549 C8.92944787 -0.04066899 13.52522718 -0.04569029 18.12109375 -0.046875 C19.29631655 -0.04753778 19.29631655 -0.04753778 20.49528122 -0.04821396 C43.90055764 -0.05513584 67.16775416 0.17082939 90.4375 2.94989014 C92.6529055 3.21438477 94.86932029 3.46901947 97.0859375 3.72314453 C158.67390807 10.88158824 218.35180722 26.27507798 275.55859375 50.203125 C276.70376465 50.68185059 277.84893555 51.16057617 279.02880859 51.65380859 C306.90903587 63.44093775 334.18894309 77.02492288 360.07910156 92.71142578 C362.36788311 94.08839065 364.67125851 95.43297714 366.98828125 96.76171875 C398.7935259 115.02578581 428.5551465 136.83090963 457.55859375 159.203125 C458.24501953 159.73212402 458.93144531 160.26112305 459.63867188 160.80615234 C467.07352017 166.55004925 474.32261036 172.47480169 481.46484375 178.578125 C484.35410695 181.04228464 487.29377833 183.439735 490.24609375 185.828125 C494.69763183 189.45146995 498.9824183 193.22276372 503.2265625 197.0859375 C505.31683264 198.98363669 507.4284549 200.85045915 509.55859375 202.703125 C513.413865 206.06293971 517.21639226 209.47895517 521.01171875 212.90625 C522.62224015 214.35868341 524.23637232 215.80713176 525.85546875 217.25 C542.13721738 231.78337294 557.61311871 247.09754912 573.02514648 262.53930664 C576.04051654 265.56042535 579.06042823 268.57695844 582.0816431 271.5922308 C584.44020775 273.94716536 586.79636552 276.30449651 589.15182304 278.66253853 C590.26452011 279.77589539 591.37794016 280.88853025 592.49214363 282.00037956 C597.86518571 287.3645356 603.18932503 292.72650611 608.09739685 298.52784729 C609.67636387 300.33814968 611.34383389 302.02159165 613.05859375 303.703125 C616.00742158 306.60648632 618.71991485 309.64567385 621.41796875 312.78125 C623.64326369 315.29891946 625.92853973 317.74979227 628.22827148 320.19921875 C633.46797368 325.78023297 638.46399523 331.44547071 643.25 337.42578125 C645.91139156 340.62755688 648.7132588 343.66542938 651.55859375 346.703125 C656.0582521 351.50851667 660.28963257 356.4547427 664.4140625 361.58984375 C666.55734331 364.20160123 668.78239705 366.70677802 671.05859375 369.203125 C674.91951565 373.44479526 678.56409078 377.82346427 682.171875 382.28125 C684.78250105 385.47723738 687.44590443 388.62374743 690.12109375 391.765625 C693.94029319 396.25972407 697.68015559 400.80320917 701.34375 405.42578125 C704.15959107 408.95675656 707.0165773 412.45339827 709.87109375 415.953125 C714.66859635 421.83753995 719.39858276 427.76921927 724.04418945 433.77441406 C726.09367926 436.40952857 728.16944817 438.87445869 730.55859375 441.203125 C730.93032715 440.69563721 731.30206055 440.18814941 731.68505859 439.6652832 C739.19611615 429.41946 746.76896026 419.23876947 754.55859375 409.203125 C756.14266527 407.1411919 757.72597897 405.07867641 759.30859375 403.015625 C761.0567342 400.74335563 762.80733253 398.47298977 764.55859375 396.203125 C765.08469238 395.52088867 765.61079102 394.83865234 766.15283203 394.13574219 C772.95381536 385.32568986 779.82250093 376.58277612 786.86987305 367.96826172 C790.36378104 363.69277254 793.79201559 359.37258711 797.18359375 355.015625 C801.63002838 349.31281689 806.25000785 343.7799083 810.9453125 338.28125 C813.33741644 335.4760518 815.67315226 332.62849343 817.99609375 329.765625 C822.89240229 323.75414298 827.94467299 317.88269069 833.00585938 312.01025391 C834.54505357 310.21888356 836.07646494 308.42116613 837.60546875 306.62109375 C843.31186305 299.91110394 849.12866729 293.33369865 855.109375 286.8671875 C857.12733154 284.67221723 859.1066282 282.4564629 861.05859375 280.203125 C865.29678445 275.32064878 869.68553742 270.57679532 874.06738281 265.82373047 C875.57608204 264.18411922 877.0794871 262.53978323 878.58203125 260.89453125 C883.95744369 255.02181114 889.39808538 249.26665582 895.109375 243.71484375 C897.05169664 241.72295729 898.85985339 239.71080676 900.66796875 237.6015625 C904.90907781 232.71421095 909.46335073 228.14783701 914.04663086 223.5847168 C915.4938376 222.14287279 916.93561401 220.69575384 918.37695312 219.24804688 C923.05441618 214.5675778 927.79737429 210.02774894 932.82250977 205.72094727 C935.36509105 203.49802111 937.69885822 201.11972163 940.05859375 198.703125 C943.69418511 195.01823537 947.40472342 191.49576596 951.34375 188.13671875 C953.67204415 186.104081 955.93036108 184.00897097 958.1887207 181.89941406 C963.62016759 176.82659558 969.15761157 171.99442122 974.95703125 167.33984375 C977.50846104 165.24430006 979.94186148 163.06349345 982.37109375 160.828125 C986.74560201 156.84628913 991.3038845 153.18570417 995.97509766 149.56420898 C999.79137043 146.60295649 1003.55010657 143.58427895 1007.27709961 140.51147461 C1041.86171247 112.04188443 1080.10785384 87.35284837 1119.55859375 66.203125 C1120.50798828 65.68959473 1121.45738281 65.17606445 1122.43554688 64.64697266 C1149.18273747 50.23526358 1176.8348228 38.12695762 1205.55859375 28.203125 C1207.22704346 27.62570557 1207.22704346 27.62570557 1208.92919922 27.03662109 C1240.56222559 16.21419972 1273.0301484 8.73058159 1306.12109375 4.015625 C1307.19447998 3.86061523 1308.26786621 3.70560547 1309.3737793 3.54589844 C1331.17469553 0.59692016 1352.95481453 -0.17147772 1374.93359375 -0.109375 C1376.90017944 -0.10713928 1376.90017944 -0.10713928 1378.90649414 -0.1048584 C1399.61699219 -0.07111884 1420.00417329 0.64175771 1440.55859375 3.203125 C1441.73405762 3.34234375 1442.90952148 3.4815625 1444.12060547 3.625 C1527.8828563 13.73121208 1609.90021838 42.42493011 1682.55859375 85.203125 C1684.45793446 86.30667637 1686.35767969 87.40953179 1688.2578125 88.51171875 C1717.29950752 105.43198712 1745.08760855 124.49385921 1771.55859375 145.203125 C1772.70942842 146.09531915 1773.86047607 146.98723863 1775.01171875 147.87890625 C1781.4194727 152.85868688 1787.70927383 157.94863806 1793.87719727 163.22290039 C1797.20482175 166.06812827 1800.57879359 168.84028803 1803.99609375 171.578125 C1809.01034399 175.65403602 1813.73901662 179.99165294 1818.43725586 184.42333984 C1821.41816747 187.23327647 1824.43256709 189.98678381 1827.5234375 192.67578125 C1839.56759425 203.15697782 1850.88674943 214.4302895 1862.18359375 225.703125 C1862.74616882 226.26311188 1863.3087439 226.82309875 1863.8883667 227.40005493 C1869.47407938 232.96547559 1875.02915938 238.52087295 1880.12060547 244.55078125 C1881.69047619 246.35466665 1883.3515614 248.02916888 1885.05859375 249.703125 C1888.094543 252.69184837 1890.90368034 255.82018979 1893.68359375 259.046875 C1895.73218469 261.40275458 1897.83062377 263.7081996 1899.93359375 266.015625 C1903.78881761 270.28622651 1907.4344189 274.69086169 1911.05078125 279.1640625 C1913.94691363 282.67370579 1916.93542958 286.09328327 1919.93359375 289.515625 C1925.60143119 296.00608036 1930.97214181 302.68133688 1936.23779297 309.5 C1937.52413553 311.15869237 1938.82182415 312.80763571 1940.125 314.453125 C1952.18488092 329.68141407 1963.98376598 345.09162921 1975.05908203 361.05322266 C1976.60717227 363.27277372 1978.17261923 365.47918652 1979.7421875 367.68359375 C2017.84405374 421.35204468 2050.6130097 478.65652026 2080.55859375 537.203125 C2081.13222656 538.32170898 2081.70585937 539.44029297 2082.296875 540.59277344 C2091.33643026 558.26887895 2099.71278903 576.18727589 2107.81396484 594.30810547 C2109.39948877 597.85324858 2111.00274913 601.3901456 2112.609375 604.92578125 C2126.44497069 635.51340178 2138.86439208 666.74021882 2150.55859375 698.203125 C2150.8188031 698.90232056 2151.07901245 699.60151611 2151.34710693 700.32189941 C2172.52411064 757.29606183 2190.51754595 815.3153501 2205.55859375 874.203125 C2205.92503998 875.63250397 2205.92503998 875.63250397 2206.29888916 877.09075928 C2234.62766733 987.69366534 2252.03376881 1100.56301416 2263.40429688 1255.35174561 C2263.55503658 1258.13738911 2263.71413283 1260.92244458 2263.875 1263.70751953 C2265.62866495 1294.63331077 2265.76782604 1325.56713298 2265.80401993 1356.53344345 C2265.80850689 1359.70424117 2265.81620645 1362.87501724 2265.82455444 1366.04580688 C2265.90867571 1403.03208772 2264.75834365 1439.89353321 2261.74609375 1476.765625 C2261.66211334 1477.81300842 2261.57813293 1478.86039185 2261.49160767 1479.93951416 C2254.8870784 1561.75011232 2240.45629038 1643.21083744 2214.55859375 1721.203125 C2214.31451782 1721.93946167 2214.07044189 1722.67579834 2213.81896973 1723.43444824 C2194.34699325 1781.98530968 2167.73485138 1838.41643086 2132.55859375 1889.203125 C2132.09227539 1889.87649902 2131.62595703 1890.54987305 2131.14550781 1891.24365234 C2112.68253734 1917.75788878 2091.59215144 1942.21149504 2068.80859375 1965.078125 C2067.92115479 1965.97023682 2067.03371582 1966.86234863 2066.11938477 1967.78149414 C2061.09292284 1972.79572051 2055.96683222 1977.60442346 2050.55859375 1982.203125 C2049.54911802 1983.08031373 2048.53997822 1983.95788927 2047.53125 1984.8359375 C2022.60728415 2006.18021966 1995.53393811 2024.4931961 1966.66015625 2040.06201172 C1964.66743981 2041.14402341 1962.69025806 2042.25007838 1960.71484375 2043.36328125 C1939.86638848 2054.95425246 1917.3562262 2063.8493083 1894.70019531 2071.18554688 C1892.62622239 2071.85731554 1890.55515681 2072.53813574 1888.48730469 2073.22851562 C1841.04180275 2089.05881707 1789.57159245 2097.23492815 1739.625 2097.40625 C1738.2311449 2097.41331838 1736.83729013 2097.42045103 1735.44343567 2097.42764282 C1731.00264967 2097.44719313 1726.56191874 2097.45233614 1722.12109375 2097.453125 C1721.362342 2097.45341957 1720.60359024 2097.45371414 1719.82184601 2097.45401764 C1695.29706825 2097.45555464 1670.94245442 2097.07340488 1646.55859375 2094.203125 C1645.72720886 2094.10602234 1644.89582397 2094.00891968 1644.03924561 2093.90887451 C1584.83795004 2086.9063617 1528.53172061 2071.64771657 1474.55859375 2046.203125 C1473.62869629 2045.76645508 1472.69879883 2045.32978516 1471.74072266 2044.87988281 C1457.53731574 2038.15293591 1444.01933836 2030.29782212 1430.55859375 2022.203125 C1429.62273438 2021.64157715 1428.686875 2021.0800293 1427.72265625 2020.50146484 C1400.64186649 2004.18490543 1375.20138343 1985.20569631 1351.21484375 1964.62109375 C1349.51173797 1963.16301026 1347.80150101 1961.71365648 1346.08984375 1960.265625 C1338.62461542 1953.9344078 1331.35524419 1947.42970619 1324.20947266 1940.74072266 C1322.57855342 1939.22171506 1320.93564476 1937.71684329 1319.2890625 1936.21484375 C1310.83376516 1928.46526034 1302.676286 1920.42798038 1294.55859375 1912.328125 C1294.01593872 1911.78805817 1293.47328369 1911.24799133 1292.91418457 1910.69155884 C1287.43692043 1905.23492411 1282.00503795 1899.77843881 1277.00976562 1893.86865234 C1275.43477272 1892.06101412 1273.77006356 1890.38140842 1272.05859375 1888.703125 C1269.04445793 1885.73577177 1266.25942042 1882.62967208 1263.5 1879.42578125 C1261.27055314 1876.87335617 1258.97857993 1874.38424986 1256.68359375 1871.890625 C1252.55952699 1867.37408663 1248.6792251 1862.71179484 1244.83984375 1857.953125 C1242.49140407 1855.12212922 1240.04949473 1852.40928902 1237.55859375 1849.703125 C1232.66496411 1844.37350378 1228.09564686 1838.8368118 1223.55859375 1833.203125 C1222.53730408 1831.94983118 1221.51511376 1830.69727091 1220.4921875 1829.4453125 C1213.92094938 1821.39755701 1207.4264249 1813.29599381 1201.0390625 1805.1015625 C1199.42304561 1803.02930865 1197.80327558 1800.96001533 1196.18359375 1798.890625 C1188.51961851 1789.08441997 1180.97203854 1779.20000777 1173.55859375 1769.203125 C1173.00703613 1768.45949707 1172.45547852 1767.71586914 1171.88720703 1766.94970703 C1164.44557639 1756.90508006 1157.0756192 1746.81047332 1149.7734375 1736.6640625 C1147.62848571 1733.6836947 1145.47452967 1730.71018858 1143.3125 1727.7421875 C1137.27945563 1719.44992201 1131.37054149 1711.08909577 1125.609375 1702.60546875 C1122.83823879 1698.52682461 1120.04925941 1694.46425921 1117.203125 1690.4375 C1105.92428688 1674.45463281 1095.21064134 1658.11008741 1084.47427368 1641.75999451 C1083.85756805 1640.82083694 1083.24086243 1639.88167938 1082.60546875 1638.9140625 C1081.99496674 1637.98421036 1081.38446472 1637.05435822 1080.75546265 1636.09632874 C1076.05633023 1628.94525908 1071.30860955 1621.82804434 1066.5385437 1614.72418213 C1060.48908519 1605.71223159 1054.65053485 1596.61829165 1049.05859375 1587.31640625 C1046.50084996 1583.07461339 1043.82493179 1578.91540155 1041.12109375 1574.765625 C1035.17507845 1565.63533569 1029.35314586 1556.43015159 1023.55859375 1547.203125 C1022.97561523 1546.27580566 1022.39263672 1545.34848633 1021.79199219 1544.39306641 C1014.41051408 1532.64516312 1007.09828577 1520.85895284 999.90332031 1508.99584961 C995.44613402 1501.64874986 990.94570716 1494.32909792 986.43359375 1487.015625 C981.30008491 1478.68890791 976.21000679 1470.33935458 971.19555664 1461.94042969 C968.02098014 1456.62707418 964.81519636 1451.33371155 961.59243774 1446.04943848 C953.79759826 1433.26713071 946.12813924 1420.42058318 938.57885742 1407.49169922 C934.19663858 1399.98780252 929.77144533 1392.51225526 925.28466797 1385.0703125 C922.23504465 1380.00771287 919.20720683 1374.93275875 916.1953125 1369.84765625 C915.8066803 1369.1915889 915.4180481 1368.53552155 915.01763916 1367.85957336 C914.21187919 1366.49923549 913.40613399 1365.13888888 912.60040283 1363.77853394 C912.19473083 1363.09364899 911.78905884 1362.40876404 911.37109375 1361.703125 C910.96509949 1361.01767609 910.55910522 1360.33222717 910.14080811 1359.62600708 C904.42837957 1349.9863016 898.64845319 1340.39107383 892.80859375 1330.828125 C886.74308846 1320.89376744 880.85831334 1310.86638161 875.07226562 1300.76660156 C870.30218704 1292.45296406 865.40910697 1284.22025985 860.45996094 1276.01220703 C855.73593902 1268.175788 851.05869608 1260.3128569 846.39678955 1252.43942261 C839.97323185 1241.59156966 833.49978494 1230.77775203 826.93359375 1220.015625 C820.80103199 1209.9634323 814.79505693 1199.84360681 808.85876465 1189.67437744 C803.42325207 1180.36348259 797.92050927 1171.0958242 792.35839844 1161.85986328 C787.67184624 1154.07310888 783.029366 1146.26112169 778.39825439 1138.44134521 C771.23657238 1126.35022648 764.00833718 1114.30287067 756.69848633 1102.30078125 C752.05886566 1094.68214417 747.45287727 1087.04418469 742.87109375 1079.390625 C731.94223806 1061.14578215 720.84523152 1043.00556191 709.68359375 1024.90234375 C707.17885261 1020.83876252 704.68041071 1016.77145858 702.19046021 1012.69880676 C700.71246738 1010.28157179 699.23247537 1007.86556369 697.75238037 1005.44961548 C696.70295138 1003.73475705 695.65637996 1002.01815093 694.60986328 1000.30151367 C693.97677246 999.26873291 693.34368164 998.23595215 692.69140625 997.171875 C692.13340332 996.25857422 691.57540039 995.34527344 691.00048828 994.40429688 C689.61039573 992.11890508 689.61039573 992.11890508 687.55859375 990.203125 C687.19733398 990.85047607 686.83607422 991.49782715 686.46386719 992.16479492 C680.20746307 1003.37039807 673.94475485 1014.57081593 667.55859375 1025.703125 C663.17629213 1033.34280051 658.8533681 1041.01391387 654.55859375 1048.703125 C649.75765163 1057.29746079 644.91386221 1065.86510167 640.01855469 1074.40600586 C636.4244576 1080.67906938 632.86034571 1086.96849991 629.30859375 1093.265625 C624.78124018 1101.29145034 620.22179694 1109.29839448 615.64245605 1117.29464722 C609.65261342 1127.75396338 603.72085184 1138.24349362 597.84790039 1148.76904297 C593.13348212 1157.20607202 588.34350203 1165.59855061 583.53808594 1173.98388672 C578.83202782 1182.19805624 574.17129866 1190.43606254 569.55859375 1198.703125 C564.27907951 1208.1652681 558.92549752 1217.58298239 553.53808594 1226.98388672 C548.83202782 1235.19805624 544.17129866 1243.43606254 539.55859375 1251.703125 C534.27907951 1261.1652681 528.92549752 1270.58298239 523.53808594 1279.98388672 C518.83202782 1288.19805624 514.17129866 1296.43606254 509.55859375 1304.703125 C504.27981648 1314.16394728 498.92793625 1323.58093046 493.5401001 1332.9798584 C488.78573547 1341.27550934 484.08683288 1349.60021692 479.43359375 1357.953125 C474.36124023 1367.05485129 469.15373351 1376.06779953 463.87402344 1385.05053711 C459.52606586 1392.47578038 455.33410992 1399.97854789 451.18359375 1407.515625 C445.48941981 1417.84357635 439.5844056 1428.02497953 433.53735352 1438.14990234 C428.98795522 1445.77065464 424.53050773 1453.43815608 420.12109375 1461.140625 C414.2984199 1471.29048584 408.28777621 1481.31630066 402.18701172 1491.30029297 C397.0455135 1499.7201141 391.99414304 1508.19004188 386.97610474 1516.68395996 C381.10243483 1526.62453238 375.20142449 1536.53073323 368.9765625 1546.25708008 C364.8102401 1552.76840146 360.77757051 1559.35764824 356.74609375 1565.953125 C350.94045111 1575.43599818 344.9679218 1584.78973881 338.85449219 1594.07666016 C335.1204641 1599.76279143 331.50374396 1605.49995952 327.99609375 1611.328125 C322.52260317 1620.39334261 316.65333115 1629.16994886 310.74023438 1637.95263672 C308.22684507 1641.69740678 305.72748658 1645.45133365 303.23046875 1649.20703125 C293.43472619 1663.93803989 283.62784122 1678.6569725 273.55859375 1693.203125 C272.93823242 1694.10144043 272.31787109 1694.99975586 271.67871094 1695.92529297 C263.24929855 1708.12554195 254.70751567 1720.23257265 245.98876953 1732.22753906 C244.25069409 1734.62844491 242.53150489 1737.04232875 240.81542969 1739.45898438 C221.15368996 1767.14297114 200.51139292 1794.19776358 178.98681641 1820.45898438 C177.69854727 1822.03221424 176.4153665 1823.60960748 175.1328125 1825.1875 C170.70088385 1830.63491497 166.19604092 1836.01465859 161.64624023 1841.36352539 C158.71550834 1844.81491188 155.84130144 1848.3054869 152.99609375 1851.828125 C149.12046442 1856.59119718 145.04625086 1861.13676749 140.890625 1865.65625 C138.93454123 1867.79254249 137.01671678 1869.95093157 135.12109375 1872.140625 C131.30922366 1876.52382925 127.37670001 1880.79444921 123.44140625 1885.06640625 C121.57174483 1887.09637825 119.71242859 1889.13492247 117.86328125 1891.18359375 C112.4383789 1897.16996558 106.86496226 1902.94824365 101.1159668 1908.62426758 C98.28188519 1911.43460108 95.56340998 1914.26733437 92.99609375 1917.328125 C89.7365321 1921.16573699 86.05676422 1924.48743302 82.32104492 1927.84716797 C78.52957286 1931.27039293 74.89511451 1934.81642716 71.30859375 1938.453125 C67.53191266 1942.27325783 63.69698512 1945.95463895 59.60546875 1949.4375 C57.10144526 1951.5974592 54.67861677 1953.83800493 52.24609375 1956.078125 C47.75845943 1960.17069935 43.14929147 1964.05583334 38.421875 1967.8671875 C35.90473793 1969.92073179 33.43337037 1972.01839102 30.97265625 1974.13891602 C23.74353324 1980.3530966 16.2149141 1986.09586309 8.53759766 1991.74316406 C6.66606893 1993.12383785 4.80445283 1994.51677284 2.9453125 1995.9140625 C-18.07618057 2011.63623744 -40.37339013 2025.68718108 -63.44140625 2038.203125 C-64.27736328 2038.65800293 -65.11332031 2039.11288086 -65.97460938 2039.58154297 C-136.74686187 2077.8717367 -217.61970336 2097.16265439 -298.015625 2097.40625 C-299.46154306 2097.41327442 -300.90746082 2097.42036122 -302.3533783 2097.42750549 C-306.94522555 2097.44688811 -311.5370222 2097.45193941 -316.12890625 2097.453125 C-316.91170708 2097.45356686 -317.6945079 2097.45400871 -318.50102997 2097.45446396 C-341.5534766 2097.46128615 -364.47312921 2097.28705028 -387.38348389 2094.45635986 C-389.54526697 2094.19034456 -391.70824659 2093.93616736 -393.87158203 2093.68310547 C-480.67428638 2083.40161784 -569.1274144 2054.01399318 -642.71533203 1997.54833984 C-644.41288682 1996.2253516 -646.12493225 1994.92411025 -647.84375 1993.62890625 C-658.29548776 1985.73200352 -668.25195676 1977.29511843 -677.9296875 1968.46875 C-679.29009404 1967.24163368 -680.65663832 1966.02060951 -682.05395508 1964.83569336 C-688.26806034 1959.53640857 -694.00856985 1953.7875428 -699.76879883 1948.00610352 C-701.50035325 1946.269189 -703.23718984 1944.53768611 -704.97460938 1942.80664062 C-710.67715872 1937.10787061 -716.24015359 1931.36959429 -721.44140625 1925.203125 C-722.42559827 1924.07292382 -723.41124728 1922.94398955 -724.3984375 1921.81640625 C-730.57863822 1914.69212659 -736.50016958 1907.43561309 -742.1640625 1899.89257812 C-743.46094085 1898.17728795 -744.77732997 1896.478539 -746.09765625 1894.78125 C-760.61556921 1875.96980622 -773.61612296 1855.80029753 -785.44140625 1835.203125 C-785.86292969 1834.46900391 -786.28445313 1833.73488281 -786.71875 1832.97851562 C-789.69777035 1827.75826968 -792.58973818 1822.49387482 -795.44140625 1817.203125 C-795.8998291 1816.35476074 -796.35825195 1815.50639648 -796.83056641 1814.63232422 C-815.21941823 1780.43714968 -829.90884658 1744.91197 -842.44140625 1708.203125 C-842.81861816 1707.09888184 -843.19583008 1705.99463867 -843.58447266 1704.85693359 C-870.27309665 1625.97105279 -883.53425912 1542.84675105 -889.12890625 1459.953125 C-889.18984467 1459.05732727 -889.25078308 1458.16152954 -889.31356812 1457.23858643 C-891.17428918 1429.48173691 -891.64853363 1401.76151406 -891.62890625 1373.953125 C-891.62863937 1373.10246712 -891.6283725 1372.25180923 -891.62809753 1371.37537384 C-891.58933671 1272.57084671 -883.79955831 1173.90415651 -854.44140625 997.203125 C-854.2430719 996.20202698 -854.04473755 995.20092896 -853.84039307 994.16949463 C-837.62768833 912.46091608 -815.4382941 831.9900073 -788.44140625 753.203125 C-788.20311096 752.50650757 -787.96481567 751.80989014 -787.71929932 751.09216309 C-766.65612642 689.58106303 -741.51610995 629.57859161 -713.25 571.04296875 C-711.10698333 566.60090813 -709.00157734 562.14289129 -706.91455078 557.67431641 C-702.53815882 548.32413259 -697.8470789 539.17722967 -692.97412109 530.07714844 C-691.54604631 527.39933761 -690.12915511 524.71584803 -688.71606445 522.03010559 C-680.47576787 506.37310311 -671.93274704 490.96331925 -662.92236328 475.73193359 C-660.87265714 472.23195731 -658.90431138 468.68973 -656.94140625 465.140625 C-636.07685193 427.68879877 -611.77769825 391.75805602 -586.44140625 357.203125 C-585.8597168 356.40745117 -585.27802734 355.61177734 -584.67871094 354.79199219 C-577.39254819 344.82911919 -570.03546833 334.93378011 -562.44140625 325.203125 C-561.99700195 324.63255371 -561.55259766 324.06198242 -561.09472656 323.47412109 C-552.78630205 312.81387173 -544.2845526 302.33236628 -535.52514648 292.03881836 C-532.63247174 288.63368371 -529.80326158 285.18586725 -527.00390625 281.703125 C-522.62455747 276.31739086 -517.94095787 271.25495701 -513.20703125 266.18359375 C-511.11229701 263.93713811 -509.06810956 261.65839072 -507.06640625 259.328125 C-495.61875422 246.14845337 -483.23128227 233.83454494 -470.88037109 221.51171875 C-468.51785982 219.15371686 -466.15873113 216.79244197 -463.80144691 214.42922211 C-461.50939605 212.13266261 -459.2135113 209.83994354 -456.91796875 207.546875 C-456.08447906 206.71136108 -455.25098938 205.87584717 -454.39224243 205.01501465 C-450.1039181 200.74369174 -445.74885852 196.61661043 -441.15312195 192.67672729 C-438.58017866 190.46170109 -436.11317389 188.14214213 -433.62890625 185.828125 C-429.02614787 181.57506284 -424.28394337 177.56078718 -419.3984375 173.6328125 C-416.61127435 171.34269958 -413.89903565 168.98938027 -411.19311523 166.60498047 C-403.26812153 159.62950142 -395.03830656 153.17084788 -386.59863281 146.83251953 C-384.44881448 145.20872058 -382.31408797 143.56702026 -380.18359375 141.91796875 C-341.26729304 111.81307507 -299.31788072 86.36856299 -255.44140625 64.203125 C-254.50458008 63.72665527 -253.56775391 63.25018555 -252.60253906 62.75927734 C-179.19690453 25.65592006 -94.04686067 2.44864071 0 0 Z M1133.55859375 355.203125 C1132.16447266 356.32267578 1132.16447266 356.32267578 1130.7421875 357.46484375 C1119.25179356 366.78092734 1108.10526943 376.45436681 1097.30957031 386.56542969 C1095.42584566 388.32728482 1093.5354135 390.08176779 1091.64453125 391.8359375 C1075.7984552 406.51560574 1075.7984552 406.51560574 1061.1640625 422.37890625 C1059.37548747 424.41118006 1057.48740622 426.30370395 1055.55859375 428.203125 C1052.36598063 431.3529253 1049.38698096 434.61531989 1046.46484375 438.015625 C1044.24913727 440.55823899 1041.96760783 443.03422698 1039.68359375 445.515625 C1035.63780631 449.95078146 1031.81175429 454.51270528 1028.04296875 459.18359375 C1025.092452 462.76967779 1022.0502558 466.26785628 1018.99609375 469.765625 C1014.03022666 475.46496494 1009.21482157 481.24642731 1004.55859375 487.203125 C1003.75421875 488.22277344 1002.94984375 489.24242187 1002.12109375 490.29296875 C999.77653009 493.26555604 997.43986694 496.24424632 995.10644531 499.22558594 C994.05173664 500.57308439 992.99637122 501.920069 991.94042969 503.26660156 C978.64262997 520.23275982 965.72456673 537.46066021 953.16015625 554.9765625 C951.52882764 557.24450716 949.88881417 559.50592039 948.24609375 561.765625 C941.19185053 571.47455692 934.30274445 581.27672724 927.55859375 591.203125 C926.8433252 592.25419434 926.12805664 593.30526367 925.39111328 594.38818359 C916.84076973 606.95288854 908.29530612 619.52045946 899.89697266 632.1875 C896.91622668 636.67656216 893.92340002 641.15759463 890.93359375 645.640625 C889.71220351 647.4726322 888.49084624 649.30466139 887.26953125 651.13671875 C886.36588759 652.49218895 885.46224214 653.84765795 884.55859375 655.203125 C887.96873804 661.59931283 891.73536913 667.63065629 895.828125 673.609375 C897.05111429 675.41088357 898.27409577 677.21239744 899.49707031 679.01391602 C900.44652527 680.40793137 900.44652527 680.40793137 901.41516113 681.83010864 C912.09360354 697.51538299 922.57898552 713.28358086 932.72070312 729.32080078 C936.1170515 734.64722067 939.59198897 739.92227707 943.05859375 745.203125 C954.94335599 763.32837204 966.58619856 781.60679862 978.13623047 799.94677734 C979.56756693 802.21735949 981.00201419 804.48594539 982.4375 806.75390625 C992.84985861 823.20748782 1003.16969364 839.71904816 1013.43359375 856.265625 C1013.92013428 857.04856934 1014.4066748 857.83151367 1014.90795898 858.63818359 C1021.83598903 869.82577245 1028.53770892 881.15106166 1035.24023438 892.47460938 C1042.45499057 904.66346643 1049.72493694 916.81501325 1057.09838867 928.90853882 C1063.2331223 938.97429989 1069.26260618 949.09996088 1075.26660156 959.24414062 C1080.80564446 968.59996531 1086.39855514 977.92002512 1092.05859375 987.203125 C1098.54186162 997.83641345 1104.92336717 1008.5267923 1111.26660156 1019.24414062 C1116.80564446 1028.59996531 1122.39855514 1037.92002512 1128.05859375 1047.203125 C1134.54186162 1057.83641345 1140.92336717 1068.5267923 1147.26660156 1079.24414062 C1152.80564446 1088.59996531 1158.39855514 1097.92002512 1164.05859375 1107.203125 C1170.13025545 1117.16133303 1176.11772868 1127.16635509 1182.05859375 1137.203125 C1190.13791296 1150.84997831 1198.32846428 1164.42513333 1206.5859375 1177.96484375 C1208.49818056 1181.10395166 1210.40446118 1184.24659216 1212.30859375 1187.390625 C1218.08009743 1196.91356696 1223.90647639 1206.39372442 1229.88012695 1215.79125977 C1234.17168301 1222.55531725 1238.36949757 1229.37524361 1242.55859375 1236.203125 C1248.67691963 1246.17121647 1254.86574691 1256.08994015 1261.13623047 1265.96289062 C1263.55279934 1269.76900733 1265.96252049 1273.57944488 1268.37109375 1277.390625 C1268.85868164 1278.16204834 1269.34626953 1278.93347168 1269.84863281 1279.72827148 C1274.58642093 1287.23232147 1279.2851275 1294.76065777 1283.98486328 1302.28857422 C1289.33299728 1310.85134373 1294.71651939 1319.3912434 1300.11572266 1327.921875 C1301.57107808 1330.22286333 1303.02418493 1332.52525605 1304.4765625 1334.828125 C1311.54310305 1346.03154836 1318.64665454 1357.2110872 1325.76318359 1368.3828125 C1327.56783377 1371.21763964 1329.37019172 1374.05391146 1331.171875 1376.890625 C1337.79605185 1387.31782048 1344.4501336 1397.7239478 1351.18115234 1408.08251953 C1352.5860047 1410.24532484 1353.98846234 1412.4096689 1355.390625 1414.57421875 C1385.91407272 1461.65698622 1416.61475582 1508.76652243 1449.625 1554.15625 C1451.4415867 1556.65500988 1453.24414489 1559.16205242 1455.0234375 1561.6875 C1461.33029978 1570.63660288 1467.94713723 1579.33337889 1474.60546875 1588.0234375 C1477.51794094 1591.82808117 1480.39245619 1595.65782977 1483.24291992 1599.5090332 C1492.22991946 1611.63638066 1501.93332953 1623.17212557 1511.71801758 1634.65942383 C1514.63632034 1638.08988085 1517.48298265 1641.57112707 1520.30859375 1645.078125 C1523.29740694 1648.7529825 1526.38315509 1652.16075438 1529.796875 1655.44067383 C1531.46478886 1657.10928111 1532.98197383 1658.83131144 1534.50390625 1660.6328125 C1539.15558513 1665.98205915 1544.15331816 1670.98389794 1549.16357422 1675.9934082 C1550.79686823 1677.62888382 1552.42197845 1679.27220208 1554.046875 1680.91601562 C1559.85336905 1686.75308725 1565.76169039 1692.19612125 1572.20849609 1697.32788086 C1574.07220545 1698.81501483 1575.86802557 1700.32502302 1577.6328125 1701.92578125 C1624.50609296 1743.89453311 1684.03423146 1758.56638717 1745.53320312 1756.08300781 C1796.1614375 1753.2051538 1846.19847874 1732.12274452 1880.55859375 1694.203125 C1883.65031106 1690.60652175 1886.61582144 1686.92212106 1889.55859375 1683.203125 C1890.34105469 1682.23761719 1891.12351562 1681.27210937 1891.9296875 1680.27734375 C1940.52910836 1619.080953 1955.83039669 1536.57331863 1962.24609375 1460.640625 C1962.30703217 1459.92546722 1962.36797058 1459.21030945 1962.43075562 1458.47348022 C1962.85776175 1453.38650244 1963.22670682 1448.29716205 1963.55859375 1443.203125 C1963.60805145 1442.46298157 1963.65750916 1441.72283813 1963.70846558 1440.96026611 C1964.99885633 1420.74065611 1964.7587661 1400.45383539 1964.74609375 1380.203125 C1964.74582687 1379.24949696 1964.74556 1378.29586891 1964.74528503 1377.31334305 C1964.73402267 1345.23724836 1964.34335525 1313.23729086 1962.55859375 1281.203125 C1962.49307312 1280.01660339 1962.42755249 1278.83008179 1962.36004639 1277.60760498 C1956.24415066 1167.94283506 1942.36218858 1058.40777127 1814.55859375 652.203125 C1814.0387793 651.10033203 1813.51896484 649.99753906 1812.98339844 648.86132812 C1806.88677828 635.94948933 1800.62634183 623.15524585 1793.84472656 610.58837891 C1792.49923732 608.09304293 1791.16579115 605.59146599 1789.83203125 603.08984375 C1782.3980962 589.22848047 1774.45910384 575.68551929 1766.35986328 562.20605469 C1764.85219712 559.6925966 1763.35652932 557.17276521 1761.8671875 554.6484375 C1748.67821675 532.47475997 1734.05878211 510.82234519 1718.55859375 490.203125 C1717.91696289 489.34799316 1717.27533203 488.49286133 1716.61425781 487.61181641 C1709.12248067 477.65151805 1701.59505506 467.73269934 1693.55859375 458.203125 C1692.90383057 457.42316162 1692.90383057 457.42316162 1692.23583984 456.62744141 C1684.6935738 447.64384546 1677.01893754 438.79431677 1669.16015625 430.0859375 C1667.67289419 428.43789035 1666.19068091 426.78517797 1664.72387695 425.11889648 C1658.78208212 418.41580283 1652.55372211 412.04427185 1646.21069336 405.72485352 C1644.49150705 404.01105267 1642.77776792 402.29193418 1641.06445312 400.57226562 C1635.39667249 394.90105651 1629.67350148 389.39606737 1623.55859375 384.203125 C1621.95091002 382.74866983 1620.3461966 381.29091605 1618.74609375 379.828125 C1613.49461083 375.1009959 1608.0884888 370.59966217 1602.55859375 366.203125 C1601.5835791 365.42727051 1601.5835791 365.42727051 1600.58886719 364.63574219 C1528.19056108 307.22783203 1441.05132571 268.40402266 1133.55859375 355.203125 Z M-34.44140625 346.203125 C-35.46476074 346.39116699 -36.48811523 346.57920898 -37.54248047 346.77294922 C-92.67049854 357.12025678 -143.7507417 383.46694328 -187.44140625 418.203125 C-188.28574219 418.86570312 -189.13007812 419.52828125 -190 420.2109375 C-200.63262145 428.6149615 -210.88056318 437.43647045 -220.79785156 446.67285156 C-222.61078849 448.36083265 -224.42846246 450.04363798 -226.24609375 451.7265625 C-238.71876906 463.28586506 -238.71876906 463.28586506 -250.26953125 475.75 C-252.61790326 478.40247774 -255.03616229 480.97827308 -257.46704102 483.55493164 C-262.95205327 489.37013077 -268.25846429 495.23346472 -273.25 501.484375 C-275.22870826 503.939243 -277.25970885 506.3393324 -279.31689453 508.72851562 C-286.38209264 516.95074973 -292.94338726 525.52909503 -299.44140625 534.203125 C-299.99699219 534.94304687 -300.55257812 535.68296875 -301.125 536.4453125 C-314.81699864 554.72239152 -327.96213744 573.36888589 -339.95849609 592.80664062 C-341.51095685 595.31552353 -343.07848632 597.81452904 -344.6484375 600.3125 C-352.24207658 612.42933618 -359.46735414 624.72024329 -366.44140625 637.203125 C-367.06450684 638.3178418 -367.68760742 639.43255859 -368.32958984 640.58105469 C-381.45267575 664.09188443 -394.06406035 687.79041034 -405.44140625 712.203125 C-405.73080078 712.82209656 -406.02019531 713.44106812 -406.31835938 714.07879639 C-428.42372882 761.3592366 -447.69405265 809.77095779 -464.44140625 859.203125 C-464.71728577 860.01638245 -464.99316528 860.82963989 -465.27740479 861.6675415 C-500.69061827 966.25696658 -524.56241832 1074.53384303 -546.22137451 1267.13848877 C-546.36826181 1269.18435783 -546.51756053 1271.23005516 -546.66925049 1273.27557373 C-549.1487101 1306.77232846 -549.72920247 1340.19281009 -549.7514801 1373.76743698 C-549.7538718 1376.84627664 -549.75919024 1379.92510145 -549.76477051 1383.00393677 C-549.79595502 1406.48338284 -549.4541401 1429.79809166 -547.44140625 1453.203125 C-547.36588531 1454.09977875 -547.29036438 1454.9964325 -547.21255493 1455.92025757 C-546.77992894 1460.9404894 -546.26820895 1465.94754098 -545.69140625 1470.953125 C-545.60903717 1471.68162659 -545.52666809 1472.41012817 -545.44180298 1473.16070557 C-536.81510689 1548.71922111 -515.90541116 1628.07360138 -464.44140625 1686.203125 C-463.64734375 1687.10804687 -462.85328125 1688.01296875 -462.03515625 1688.9453125 C-445.3707925 1707.72125659 -425.71373159 1722.64942772 -403.44140625 1734.203125 C-402.28898438 1734.80640625 -401.1365625 1735.4096875 -399.94921875 1736.03125 C-345.55861215 1762.92371028 -277.56225875 1762.40602581 -220.84130859 1743.32861328 C-169.93641353 1725.69925367 -129.02857566 1690.8005176 -91.44140625 1653.328125 C-90.94640625 1652.83580383 -90.45140625 1652.34348267 -89.94140625 1651.83624268 C-84.77157572 1646.68768098 -79.69767728 1641.4984402 -74.94824219 1635.95507812 C-72.72287866 1633.36771444 -70.39247921 1630.88783546 -68.06640625 1628.390625 C-63.72260412 1623.69417846 -59.63724199 1618.84037546 -55.625 1613.85546875 C-53.44743557 1611.21044863 -51.18821862 1608.67099975 -48.87890625 1606.140625 C-45.33140733 1602.23898677 -41.99376423 1598.23071869 -38.73046875 1594.08984375 C-36.43210707 1591.19139788 -34.09874856 1588.32452978 -31.75756836 1585.46069336 C-26.02082209 1578.43862441 -20.39530391 1571.35306619 -14.90966797 1564.13232422 C-13.19740653 1561.88252544 -11.47763425 1559.63855572 -9.7578125 1557.39453125 C3.09294338 1540.60680239 15.60420367 1523.58669781 27.95410156 1506.42822266 C29.55497838 1504.20813877 31.16134806 1501.99213951 32.76953125 1499.77734375 C40.19255017 1489.54762241 47.48510077 1479.23276392 54.70654297 1468.85986328 C56.61233293 1466.12603697 58.52446246 1463.39672741 60.4375 1460.66796875 C68.07067751 1449.76182268 75.55979495 1438.77247444 82.91845703 1427.67919922 C86.50210347 1422.27864139 90.1138526 1416.90321869 93.80859375 1411.578125 C116.40248713 1378.9281148 137.93356981 1345.49857625 159.55859375 1312.203125 C160.26266357 1311.1200708 160.26266357 1311.1200708 160.98095703 1310.01513672 C167.58613106 1299.85059983 174.12257247 1289.6425256 180.65161133 1279.42895508 C184.47766423 1273.44606086 188.31709759 1267.47245245 192.18359375 1261.515625 C201.24625344 1247.54494999 210.13901338 1233.46490938 219.02368164 1219.38061523 C224.58299816 1210.57171637 230.18017614 1201.78696521 235.77636719 1193.00146484 C238.70514188 1188.40288738 241.63177066 1183.80294473 244.55859375 1179.203125 C245.72524988 1177.36978496 246.89191655 1175.53645163 248.05859375 1173.703125 C248.63609375 1172.795625 249.21359375 1171.888125 249.80859375 1170.953125 C251.55859375 1168.203125 253.30859375 1165.453125 255.05859375 1162.703125 C255.63593262 1161.7958667 256.21327148 1160.8886084 256.80810547 1159.95385742 C257.97635763 1158.11805588 259.14465199 1156.2822812 260.31298828 1154.4465332 C263.2057413 1149.90118124 266.09779145 1145.35538533 268.98828125 1140.80859375 C277.14354776 1127.98241515 285.32877531 1115.17562782 293.52636719 1102.37646484 C296.20651444 1098.19139108 298.88542561 1094.00552692 301.56420898 1089.81958008 C302.89175344 1087.74513952 304.21938987 1085.67075782 305.54711914 1083.59643555 C308.94419906 1078.2890967 312.3401934 1072.98106794 315.734375 1067.671875 C321.91221459 1058.01029128 328.09551 1048.3529268 334.3371582 1038.73242188 C338.43723447 1032.40611151 342.49799067 1026.05482182 346.55859375 1019.703125 C353.27908484 1009.19189008 360.03985776 998.70782329 366.83105469 988.2421875 C372.73183555 979.14608661 378.59493752 970.02674633 384.43359375 960.890625 C390.93019975 950.72655541 397.48229716 940.6002262 404.06787109 930.49365234 C406.44658302 926.83871044 408.81559882 923.17751632 411.18359375 919.515625 C411.63001221 918.82533203 412.07643066 918.13503906 412.53637695 917.42382812 C413.42958295 916.04251811 414.32273097 914.6611706 415.21582031 913.27978516 C417.49583304 909.75364184 419.77729581 906.22843691 422.05859375 902.703125 C422.97526716 901.2864627 423.89193383 899.86979603 424.80859375 898.453125 C426.64192708 895.61979167 428.47526042 892.78645833 430.30859375 889.953125 C430.76218262 889.2521167 431.21577148 888.5511084 431.68310547 887.82885742 C432.60137275 886.40973189 433.5196671 884.99062386 434.43798828 883.5715332 C436.70538576 880.06762903 438.97233876 876.56343905 441.23828125 873.05859375 C447.77711458 862.94610142 454.33577124 852.84659872 460.90136719 842.75146484 C463.62118344 838.56916637 466.33983653 834.38611196 469.05859375 830.203125 C470.14192136 828.53645461 471.2252547 826.86978795 472.30859375 825.203125 C473.11296875 823.965625 473.11296875 823.965625 473.93359375 822.703125 C479.89192708 813.53645833 485.85026042 804.36979167 491.80859375 795.203125 C492.34492432 794.37796387 492.88125488 793.55280273 493.43383789 792.70263672 C494.5162201 791.03750839 495.59873944 789.37246918 496.68139648 787.70751953 C499.4054186 783.51803989 502.1269724 779.32699426 504.84375 775.1328125 C511.99604429 764.09790487 519.23686608 753.12635114 526.55859375 742.203125 C523.52289504 736.48709869 520.27910166 731.17172902 516.37109375 726.015625 C515.39506668 724.70630032 514.41982281 723.39639148 513.4453125 722.0859375 C512.71707275 721.10995605 512.71707275 721.10995605 511.97412109 720.11425781 C509.83989934 717.23280078 507.75973309 714.31407309 505.68359375 711.390625 C490.01157694 689.38031499 473.99852091 667.64630959 457.55859375 646.203125 C457.07938477 645.57712402 456.60017578 644.95112305 456.10644531 644.30615234 C453.70760528 641.17276969 451.30196473 638.04473992 448.88818359 634.92285156 C447.92166943 633.67273666 446.95595511 632.42200323 445.99072266 631.17089844 C439.17975152 622.34746105 432.30296582 613.58963626 425.24291992 604.96386719 C421.78611967 600.73543623 418.40549245 596.45629874 415.05859375 592.140625 C409.68034272 585.23245573 403.95684173 578.64959199 398.18603516 572.06884766 C395.53565891 569.03041752 392.92429179 565.95889495 390.30859375 562.890625 C386.13135683 558.00109646 381.88449121 553.18457015 377.5625 548.421875 C375.74547393 546.41004107 373.95914983 544.37652066 372.18359375 542.328125 C367.9809932 537.50578612 363.64601083 532.80475075 359.30395508 528.1081543 C358.01793474 526.70448711 356.74339054 525.29028466 355.4753418 523.87036133 C346.86493418 514.31010834 337.75743711 505.2506317 328.65112305 496.1652832 C325.86326001 493.3828064 323.08081633 490.5949899 320.29882812 487.80664062 C318.50683116 486.01530408 316.71452422 484.22427756 314.921875 482.43359375 C313.6903344 481.1990168 313.6903344 481.1990168 312.43391418 479.9394989 C308.16500667 475.68773879 303.82586293 471.58339574 299.25292969 467.65934753 C296.86417548 465.60629676 294.55955319 463.4652866 292.24609375 461.328125 C287.75845943 457.23555065 283.14929147 453.35041666 278.421875 449.5390625 C275.90487193 447.48562753 273.43359141 445.38815037 270.97314453 443.26757812 C241.19895777 417.67684156 207.4991946 396.89140348 172.55859375 379.203125 C171.4617627 378.64262451 171.4617627 378.64262451 170.34277344 378.07080078 C132.5812304 358.91493303 90.53326779 348.38503685 48.55859375 344.203125 C47.16894409 344.05955566 47.16894409 344.05955566 45.7512207 343.91308594 C19.62520875 341.54127846 -8.63267254 341.20567789 -34.44140625 346.203125 Z " fill="#0175EF" transform="translate(1232.44140625,30.796875)"/>
<path d="M0 0 C0.66 0.33 1.32 0.66 2 1 C3.21346851 4.64040554 3.21346851 6.35959446 2 10 C1.84188612 13.05270463 1.84188612 13.05270463 3 16 C3 19 3 19 2 22 C1.84188612 25.05270463 1.84188612 25.05270463 3 28 C3 31 3 31 2 34 C1.84188612 37.05270463 1.84188612 37.05270463 3 40 C3 43 3 43 2 46 C1.84188612 49.05270463 1.84188612 49.05270463 3 52 C3 55 3 55 2 58 C1.84188612 61.05270463 1.84188612 61.05270463 3 64 C3 67 3 67 2 70 C2 70.99 2 71.98 2 73 C-2.09547031 71.63484323 -2.60191099 69.73137016 -4.73046875 66.015625 C-5.26164055 65.0984671 -5.26164055 65.0984671 -5.80354309 64.16278076 C-6.94008626 62.19664074 -8.06417436 60.22371617 -9.1875 58.25 C-10.29107694 56.32814102 -11.39724191 54.40780181 -12.50466919 52.48815918 C-13.23796739 51.21578892 -13.96899134 49.94210521 -14.69772339 48.66711426 C-16.52474591 45.48481236 -18.39447355 42.34484307 -20.36962891 39.25195312 C-20.74654373 38.65888367 -21.12345856 38.06581421 -21.51179504 37.45477295 C-22.55143776 35.8309676 -23.60405772 34.21549208 -24.6574707 32.60058594 C-25.32202271 31.3132959 -25.32202271 31.3132959 -26 30 C-25.505 28.515 -25.505 28.515 -25 27 C-24.34 27 -23.68 27 -23 27 C-23 27.66 -23 28.32 -23 29 C-20.02732249 26.35967153 -18.18000571 23.25736348 -16.125 19.875 C-15.77276367 19.30040039 -15.42052734 18.72580078 -15.05761719 18.13378906 C-12.57465807 14.05317889 -10.30120485 9.89947857 -8.203125 5.609375 C-6.65084768 3.53295209 -5.4925847 3.45994122 -3 3 C-1.26973898 1.52109931 -1.26973898 1.52109931 0 0 Z " fill="#0964D9" transform="translate(2139,1311)"/>
<path d="M0 0 C15.84 0 31.68 0 48 0 C48 0.99 48 1.98 48 3 C42.72 3 37.44 3 32 3 C32 2.34 32 1.68 32 1 C29.52039864 1.14024219 27.04147598 1.2869185 24.5625 1.4375 C23.50192383 1.49647461 23.50192383 1.49647461 22.41992188 1.55664062 C18.91309581 1.47624438 18.91309581 1.47624438 16 3 C13.30764224 3.23678716 10.63501844 3.42198025 7.9375 3.5625 C6.79958008 3.62727539 6.79958008 3.62727539 5.63867188 3.69335938 C3.75934562 3.79973633 1.87969756 3.90039934 0 4 C0 2.68 0 1.36 0 0 Z " fill="#0081F4" transform="translate(2583,31)"/>
<path d="M0 0 C0.66 0.33 1.32 0.66 2 1 C1.67 2.65 1.34 4.3 1 6 C-0.65 6.33 -2.3 6.66 -4 7 C-4 4 -4 4 -2 1.8125 C-1.34 1.214375 -0.68 0.61625 0 0 Z M-16 16 C-15.67 16 -15.34 16 -15 16 C-14.875 18.375 -14.875 18.375 -15 21 C-15.66 21.66 -16.32 22.32 -17 23 C-19.125 22.625 -19.125 22.625 -21 22 C-19.35830472 19.97945196 -17.69088222 17.97956942 -16 16 Z " fill="#0380F7" transform="translate(2147,254)"/>
<path d="M0 0 C1.4540625 0.0309375 1.4540625 0.0309375 2.9375 0.0625 C2.9375 3.0325 2.9375 6.0025 2.9375 9.0625 C3.5975 9.0625 4.2575 9.0625 4.9375 9.0625 C4.9375 10.0525 4.9375 11.0425 4.9375 12.0625 C3.9475 12.0625 2.9575 12.0625 1.9375 12.0625 C-0.0425 8.4325 -2.0225 4.8025 -4.0625 1.0625 C-3.0625 0.0625 -3.0625 0.0625 0 0 Z " fill="#0865DC" transform="translate(2079.0625,1274.9375)"/>
<path d="M0 0 C0 1.98 0 3.96 0 6 C-2.66666667 6 -5.33333333 6 -8 6 C-8.99 6.495 -8.99 6.495 -10 7 C-7.6551217 1.76911763 -5.98347266 -0.48514643 0 0 Z " fill="#0363DE" transform="translate(733,287)"/>
<path d="M0 0 C5.61 0 11.22 0 17 0 C17 0.99 17 1.98 17 3 C11.39 3 5.78 3 0 3 C0 2.01 0 1.02 0 0 Z " fill="#0263DB" transform="translate(1231,31)"/>
<path d="M0 0 C0.625 1.875 0.625 1.875 1 4 C-1 6 -1 6 -3.625 6.125 C-4.40875 6.08375 -5.1925 6.0425 -6 6 C-2.25 1.125 -2.25 1.125 0 0 Z M-15 15 C-15 16.65 -15 18.3 -15 20 C-15.99 20.495 -15.99 20.495 -17 21 C-19.125 20.0625 -19.125 20.0625 -21 19 C-16.125 15 -16.125 15 -15 15 Z " fill="#0281F4" transform="translate(2180,223)"/>
<path d="M0 0 C1.93459384 3.86918767 2.53322924 6.52306601 3.125 10.75 C3.29257813 11.92046875 3.46015625 13.0909375 3.6328125 14.296875 C3.75398438 15.18890625 3.87515625 16.0809375 4 17 C2.68 17 1.36 17 0 17 C0 11.39 0 5.78 0 0 Z " fill="#0281F4" transform="translate(3452,968)"/>
<path d="M0 0 C0.99 0.33 1.98 0.66 3 1 C3 2.32 3 3.64 3 5 C1.35 5 -0.3 5 -2 5 C-2 5.66 -2 6.32 -2 7 C-3.875 7.625 -3.875 7.625 -6 8 C-6.66 7.34 -7.32 6.68 -8 6 C-6.7391988 4.96680187 -5.46596742 3.94875621 -4.1875 2.9375 C-3.47980469 2.36902344 -2.77210938 1.80054688 -2.04296875 1.21484375 C-1.36878906 0.81394531 -0.69460938 0.41304687 0 0 Z " fill="#0163E1" transform="translate(875,156)"/>
<path d="M0 0 C1.98 0 3.96 0 6 0 C6 0.66 6 1.32 6 2 C6.99 2.33 7.98 2.66 9 3 C9.33 4.65 9.66 6.3 10 8 C6.05205855 6.32971708 3.18203882 3.8204435 0 1 C0 0.67 0 0.34 0 0 Z " fill="#0A72E2" transform="translate(2589,1999)"/>
<path d="M0 0 C0.33 0 0.66 0 1 0 C1 1.65 1 3.3 1 5 C1.66 5 2.32 5 3 5 C3 6.32 3 7.64 3 9 C1.02 9 -0.96 9 -3 9 C-2.01 6.03 -1.02 3.06 0 0 Z " fill="#0464E0" transform="translate(502,638)"/>
<path d="M0 0 C0.66 0 1.32 0 2 0 C3.4606285 2.64738916 4 3.89448334 4 7 C4.66 7.33 5.32 7.66 6 8 C5.01 8.66 4.02 9.32 3 10 C-1.06153846 4.58461538 -1.06153846 4.58461538 -0.75 1.625 C-0.5025 1.08875 -0.255 0.5525 0 0 Z " fill="#0A63D6" transform="translate(2096,1307)"/>
<path d="M0 0 C0.99 0.33 1.98 0.66 3 1 C3 2.32 3 3.64 3 5 C1.02 5 -0.96 5 -3 5 C-1.125 1.125 -1.125 1.125 0 0 Z " fill="#0164E3" transform="translate(742,272)"/>
<path d="M0 0 C0.66 0.33 1.32 0.66 2 1 C1.34 2.32 0.68 3.64 0 5 C-1.98 5 -3.96 5 -6 5 C-6 4.34 -6 3.68 -6 3 C-4.03533587 1.93224776 -2.03144641 0.93446535 0 0 Z " fill="#047FF4" transform="translate(2356,95)"/>
<path d="M0 0 C2.31 0 4.62 0 7 0 C7 1.65 7 3.3 7 5 C3.34683329 3.75023244 2.21934164 3.32901247 0 0 Z " fill="#0481F4" transform="translate(595,2031)"/>
<path d="M0 0 C3 3.75 3 3.75 3 6 C1.68 6 0.36 6 -1 6 C-1.33 5.01 -1.66 4.02 -2 3 C-1.34 2.01 -0.68 1.02 0 0 Z " fill="#0262E0" transform="translate(673,352)"/>
<path d="M0 0 C0.66 1.32 1.32 2.64 2 4 C0.35 4.33 -1.3 4.66 -3 5 C-3.33 4.01 -3.66 3.02 -4 2 C-2.68 1.34 -1.36 0.68 0 0 Z M-6 3 C-5.34 3.33 -4.68 3.66 -4 4 C-5.32 4.33 -6.64 4.66 -8 5 C-7.34 4.34 -6.68 3.68 -6 3 Z " fill="#0460E8" transform="translate(977,95)"/>
<path d="M0 0 C1.65 0 3.3 0 5 0 C5 1.32 5 2.64 5 4 C3.02 4.33 1.04 4.66 -1 5 C-0.67 3.35 -0.34 1.7 0 0 Z " fill="#086AEB" transform="translate(404,917)"/>
<path d="M0 0 C1.32 0 2.64 0 4 0 C3.34 1.32 2.68 2.64 2 4 C-0.64 3.67 -3.28 3.34 -6 3 C-6 2.67 -6 2.34 -6 2 C-4.02 2 -2.04 2 0 2 C0 1.34 0 0.68 0 0 Z " fill="#047EFB" transform="translate(793,2113)"/>
<path d="M0 0 C1.98 0 3.96 0 6 0 C4.35830472 2.02054804 2.69088222 4.02043058 1 6 C0.67 6 0.34 6 0 6 C0 4.02 0 2.04 0 0 Z " fill="#047BFB" transform="translate(3291,1999)"/>
<path d="M0 0 C-0.66 0.66 -1.32 1.32 -2 2 C-2.33 2.66 -2.66 3.32 -3 4 C-4.32 4 -5.64 4 -7 4 C-6.6875 2.0625 -6.6875 2.0625 -6 0 C-3 -1 -3 -1 0 0 Z " fill="#0263E0" transform="translate(1057,64)"/>
<path d="M0 0 C0.33 0 0.66 0 1 0 C1 1.98 1 3.96 1 6 C-0.65 6 -2.3 6 -4 6 C-1.125 1.125 -1.125 1.125 0 0 Z " fill="#0560E7" transform="translate(700,319)"/>
<path d="M0 0 C1.32 0 2.64 0 4 0 C3.6875 1.875 3.6875 1.875 3 4 C2.01 4.66 1.02 5.32 0 6 C0 4.02 0 2.04 0 0 Z " fill="#067EF6" transform="translate(1362,1902)"/>
<path d="M0 0 C0.66 0 1.32 0 2 0 C2 2.64 2 5.28 2 8 C1.34 8 0.68 8 0 8 C-1.125 2.25 -1.125 2.25 0 0 Z " fill="#0064E4" transform="translate(586,478)"/>
<path d="M0 0 C4 4.625 4 4.625 4 8 C3.34 8 2.68 8 2 8 C2 7.34 2 6.68 2 6 C1.34 6 0.68 6 0 6 C0 4.02 0 2.04 0 0 Z " fill="#057FF4" transform="translate(3243,446)"/>
<path d="M0 0 C1.98 0 3.96 0 6 0 C6 0.66 6 1.32 6 2 C4.02 2.66 2.04 3.32 0 4 C0 2.68 0 1.36 0 0 Z " fill="#0C66E0" transform="translate(2336,1693)"/>
<path d="M0 0 C0.66 0 1.32 0 2 0 C2 1.98 2 3.96 2 6 C1.01 6.495 1.01 6.495 0 7 C-0.66 5.68 -1.32 4.36 -2 3 C-1.34 2.01 -0.68 1.02 0 0 Z " fill="#036CD9" transform="translate(2307,1651)"/>
<path d="M0 0 C0.66 0 1.32 0 2 0 C2 1.32 2 2.64 2 4 C2.66 4.33 3.32 4.66 4 5 C3.34 5 2.68 5 2 5 C1.67 5.99 1.34 6.98 1 8 C0 7 0 7 -0.0625 3.4375 C-0.041875 2.303125 -0.02125 1.16875 0 0 Z " fill="#0F60DB" transform="translate(2147,1391)"/>
<path d="M0 0 C0.33 0 0.66 0 1 0 C1.33 2.31 1.66 4.62 2 7 C1.01 7.66 0.02 8.32 -1 9 C-1.09765625 2.84765625 -1.09765625 2.84765625 -1 1 C-0.67 0.67 -0.34 0.34 0 0 Z " fill="#0473E1" transform="translate(376,1043)"/>
<path d="M0 0 C-0.99 1.485 -0.99 1.485 -2 3 C-2.99 3 -3.98 3 -5 3 C-5 2.34 -5 1.68 -5 1 C-5.99 0.67 -6.98 0.34 -8 0 C-4.94736336 -0.98120464 -3.05263664 -0.98120464 0 0 Z " fill="#0565E0" transform="translate(1108,49)"/>
</svg>
