<?xml version="1.0" encoding="UTF-8"?>
<svg version="1.1" xmlns="http://www.w3.org/2000/svg" width="225" height="225">
<path d="M0 0 C74.25 0 148.5 0 225 0 C225 74.25 225 148.5 225 225 C150.75 225 76.5 225 0 225 C0 150.75 0 76.5 0 0 Z " fill="#FD6F01" transform="translate(0,0)"/>
<path d="M0 0 C7.92 0 15.84 0 24 0 C24 13.86 24 27.72 24 42 C43.47 42 62.94 42 83 42 C83 28.14 83 14.28 83 0 C90.92 0 98.84 0 107 0 C107 27.39 107 54.78 107 83 C126.47 83 145.94 83 166 83 C166 85.97 166 88.94 166 92 C91.75 92 17.5 92 -59 92 C-59 89.03 -59 86.06 -59 83 C-39.53 83 -20.06 83 0 83 C0 55.61 0 28.22 0 0 Z " fill="#FEFEFE" transform="translate(59,133)"/>
<path d="M0 0 C74.25 0 148.5 0 225 0 C225 2.97 225 5.94 225 9 C205.53 9 186.06 9 166 9 C166 22.53 166 36.06 166 50 C152.47 50 138.94 50 125 50 C125 63.86 125 77.72 125 92 C116.75 92 108.5 92 100 92 C100 78.14 100 64.28 100 50 C86.47 50 72.94 50 59 50 C59 36.47 59 22.94 59 9 C39.53 9 20.06 9 0 9 C0 6.03 0 3.06 0 0 Z " fill="#FEFEFD" transform="translate(0,0)"/>
<path d="M0 0 C19.47 0 38.94 0 59 0 C59 27.39 59 54.78 59 83 C26 83 -7 83 -41 83 C-41 69.14 -41 55.28 -41 41 C-27.47 41 -13.94 41 0 41 C0 27.47 0 13.94 0 0 Z " fill="#FDA201" transform="translate(166,9)"/>
<path d="M0 0 C13.53 0 27.06 0 41 0 C41 13.53 41 27.06 41 41 C54.53 41 68.06 41 82 41 C82 54.86 82 68.72 82 83 C54.94 83 27.88 83 0 83 C0 55.61 0 28.22 0 0 Z " fill="#FEA201" transform="translate(18,9)"/>
<path d="M0 0 C5.61 0 11.22 0 17 0 C17 68.31 17 136.62 17 207 C11.39 207 5.78 207 0 207 C0 138.69 0 70.38 0 0 Z " fill="#1A1B1B" transform="translate(0,9)"/>
<path d="M0 0 C13.53 0 27.06 0 41 0 C41 27.39 41 54.78 41 83 C27.14 83 13.28 83 -1 83 C-1.09686884 55.29551049 -0.75104537 27.6947979 0 0 Z " fill="#FF4903" transform="translate(18,133)"/>
<path d="M0 0 C5.94 0 11.88 0 18 0 C18 13.86 18 27.72 18 42 C31.2 42 44.4 42 58 42 C58.495 62.295 58.495 62.295 59 83 C39.53 83 20.06 83 0 83 C0 55.61 0 28.22 0 0 Z " fill="#FB0207" transform="translate(166,133)"/>
<path d="M0 0 C19.14 0 38.28 0 58 0 C58 13.53 58 27.06 58 41 C38.86 41 19.72 41 0 41 C0 27.47 0 13.94 0 0 Z " fill="#FD4800" transform="translate(83,133)"/>
<path d="M0 0 C13.53 0 27.06 0 41 0 C41 27.06 41 54.12 41 82 C40.67 82 40.34 82 40 82 C40 68.8 40 55.6 40 42 C26.8 42 13.6 42 0 42 C0 28.14 0 14.28 0 0 Z " fill="#FE4802" transform="translate(184,133)"/>
<path d="M0 0 C13.53 0 27.06 0 41 0 C41 13.53 41 27.06 41 41 C27.47 41 13.94 41 0 41 C0 27.47 0 13.94 0 0 Z " fill="#FD0106" transform="translate(17,175)"/>
<path d="M0 0 C13.53 0 27.06 0 41 0 C41 13.53 41 27.06 41 41 C27.47 41 13.94 41 0 41 C0 27.47 0 13.94 0 0 Z " fill="#FFCE00" transform="translate(184,9)"/>
<path d="M0 0 C13.53 0 27.06 0 41 0 C41 13.53 41 27.06 41 41 C27.47 41 13.94 41 0 41 C0 27.47 0 13.94 0 0 Z " fill="#FFCE00" transform="translate(18,9)"/>
<path d="M0 0 C5.61 0 11.22 0 17 0 C17 27.39 17 54.78 17 83 C11.39 83 5.78 83 0 83 C0 55.61 0 28.22 0 0 Z " fill="#1C1D1C" transform="translate(166,133)"/>
<path d="M0 0 C5.61 0 11.22 0 17 0 C17 13.86 17 27.72 17 42 C11.39 42 5.78 42 0 42 C0 28.14 0 14.28 0 0 Z " fill="#1D1C1A" transform="translate(125,50)"/>
<path d="M0 0 C5.61 0 11.22 0 17 0 C17 13.53 17 27.06 17 41 C11.39 41 5.78 41 0 41 C0 27.47 0 13.94 0 0 Z " fill="#1B1B1A" transform="translate(83,133)"/>
<path d="M0 0 C5.61 0 11.22 0 17 0 C17 13.53 17 27.06 17 41 C11.39 41 5.78 41 0 41 C0 27.47 0 13.94 0 0 Z " fill="#1B1C1D" transform="translate(166,9)"/>
</svg>
